<?xml version="1.0" encoding="UTF-8" standalone="no"?>
<!DOCTYPE svg PUBLIC "-//W3C//DTD SVG 1.1//EN"
 "http://www.w3.org/Graphics/SVG/1.1/DTD/svg11.dtd">
<!-- Generated by graphviz version 2.40.1 (20161225.0304)
 -->
<!-- Pages: 1 -->
<svg width="417pt" height="161pt"
 viewBox="0.00 0.00 416.70 160.83" xmlns="http://www.w3.org/2000/svg" xmlns:xlink="http://www.w3.org/1999/xlink">
<g id="graph0" class="graph" transform="scale(1 1) rotate(0) translate(4 156.8313)">
<polygon fill="#ffffff" stroke="transparent" points="-4,4 -4,-156.8313 412.701,-156.8313 412.701,4 -4,4"/>
<!-- a -->
<g id="node1" class="node">
<title>a</title>
<ellipse fill="none" stroke="#000000" cx="90.701" cy="-75.4156" rx="27" ry="29.3315"/>
<text text-anchor="middle" x="90.701" y="-79.6156" font-family="Times,serif" font-size="14.00" fill="#000000">a</text>
<text text-anchor="middle" x="90.701" y="-62.8156" font-family="Times,serif" font-size="14.00" fill="#000000">0</text>
</g>
<!-- b -->
<g id="node2" class="node">
<title>b</title>
<ellipse fill="none" stroke="#000000" cx="187.701" cy="-123.4156" rx="27" ry="29.3315"/>
<text text-anchor="middle" x="187.701" y="-127.6156" font-family="Times,serif" font-size="14.00" fill="#000000">b</text>
<text text-anchor="middle" x="187.701" y="-110.8156" font-family="Times,serif" font-size="14.00" fill="#000000">0</text>
</g>
<!-- c -->
<g id="node3" class="node">
<title>c</title>
<ellipse fill="none" stroke="#000000" cx="284.701" cy="-70.4156" rx="27" ry="29.3315"/>
<text text-anchor="middle" x="284.701" y="-74.6156" font-family="Times,serif" font-size="14.00" fill="#000000">c</text>
<text text-anchor="middle" x="284.701" y="-57.8156" font-family="Times,serif" font-size="14.00" fill="#000000">0</text>
</g>
<!-- d -->
<g id="node4" class="node">
<title>d</title>
<ellipse fill="none" stroke="#000000" cx="381.701" cy="-29.4156" rx="27" ry="29.3315"/>
<text text-anchor="middle" x="381.701" y="-33.6156" font-family="Times,serif" font-size="14.00" fill="#000000">d</text>
<text text-anchor="middle" x="381.701" y="-16.8156" font-family="Times,serif" font-size="14.00" fill="#000000">1</text>
</g>
<!-- _ -->
<g id="node5" class="node">
<title>_</title>
<ellipse fill="#000000" stroke="#000000" cx="1.8" cy="-75.4156" rx="1.8" ry="1.8"/>
</g>
<!-- a&#45;&gt;a -->
<g id="edge1" class="edge">
<title>a&#45;&gt;a</title>
<path fill="none" stroke="#000000" d="M81.7362,-103.1765C81.3377,-113.91 84.326,-122.8313 90.701,-122.8313 94.8846,-122.8313 97.6096,-118.9892 98.8762,-113.3142"/>
<polygon fill="#000000" stroke="#000000" points="102.3786,-113.4182 99.6658,-103.1765 95.3997,-112.8745 102.3786,-113.4182"/>
<text text-anchor="middle" x="90.701" y="-127.0313" font-family="Times,serif" font-size="14.00" fill="#000000">0</text>
</g>
<!-- a&#45;&gt;b -->
<g id="edge2" class="edge">
<title>a&#45;&gt;b</title>
<path fill="none" stroke="#000000" d="M111.4513,-94.4681C118.694,-100.2956 127.1579,-106.2571 135.701,-110.4156 140.4427,-112.7238 145.6334,-114.6471 150.8419,-116.2428"/>
<polygon fill="#000000" stroke="#000000" points="150.1999,-119.6948 160.7666,-118.9228 152.0248,-112.9368 150.1999,-119.6948"/>
<text text-anchor="middle" x="139.201" y="-117.6156" font-family="Times,serif" font-size="14.00" fill="#000000">1</text>
</g>
<!-- b&#45;&gt;a -->
<g id="edge4" class="edge">
<title>b&#45;&gt;a</title>
<path fill="none" stroke="#000000" d="M166.3565,-104.7933C159.2078,-99.2853 150.9496,-93.6552 142.701,-89.6156 137.7633,-87.1975 132.3533,-85.1414 126.9477,-83.4085"/>
<polygon fill="#000000" stroke="#000000" points="127.9041,-80.0418 117.3256,-80.63 125.9621,-86.767 127.9041,-80.0418"/>
<text text-anchor="middle" x="139.201" y="-94.6156" font-family="Times,serif" font-size="14.00" fill="#000000">0</text>
</g>
<!-- b&#45;&gt;c -->
<g id="edge3" class="edge">
<title>b&#45;&gt;c</title>
<path fill="none" stroke="#000000" d="M212.1782,-110.0415C224.0107,-103.5763 238.3954,-95.7167 251.2241,-88.7072"/>
<polygon fill="#000000" stroke="#000000" points="253.1343,-91.6518 260.2316,-83.7855 249.7779,-85.509 253.1343,-91.6518"/>
<text text-anchor="middle" x="236.201" y="-103.6156" font-family="Times,serif" font-size="14.00" fill="#000000">1</text>
</g>
<!-- c&#45;&gt;a -->
<g id="edge5" class="edge">
<title>c&#45;&gt;a</title>
<path fill="none" stroke="#000000" d="M257.5923,-69.0419C232.4599,-68.001 194.0335,-67.0004 160.701,-68.6156 149.9993,-69.1342 138.4096,-70.0962 127.798,-71.1368"/>
<polygon fill="#000000" stroke="#000000" points="127.1699,-67.6829 117.5815,-72.19 127.8877,-74.646 127.1699,-67.6829"/>
<text text-anchor="middle" x="187.701" y="-73.6156" font-family="Times,serif" font-size="14.00" fill="#000000">0</text>
</g>
<!-- c&#45;&gt;d -->
<g id="edge6" class="edge">
<title>c&#45;&gt;d</title>
<path fill="none" stroke="#000000" d="M309.9334,-59.7504C321.1839,-54.995 334.6235,-49.3144 346.8145,-44.1615"/>
<polygon fill="#000000" stroke="#000000" points="348.4097,-47.2871 356.258,-40.1699 345.6843,-40.8394 348.4097,-47.2871"/>
<text text-anchor="middle" x="333.201" y="-55.6156" font-family="Times,serif" font-size="14.00" fill="#000000">1</text>
</g>
<!-- d&#45;&gt;a -->
<g id="edge8" class="edge">
<title>d&#45;&gt;a</title>
<path fill="none" stroke="#000000" d="M354.4651,-28.3024C329.2449,-27.6903 290.761,-27.8208 257.701,-32.4156 211.6127,-38.8212 159.9317,-53.2983 126.4366,-63.6852"/>
<polygon fill="#000000" stroke="#000000" points="125.1402,-60.4239 116.6517,-66.7639 127.2412,-67.1011 125.1402,-60.4239"/>
<text text-anchor="middle" x="236.201" y="-41.6156" font-family="Times,serif" font-size="14.00" fill="#000000">0</text>
</g>
<!-- d&#45;&gt;d -->
<g id="edge7" class="edge">
<title>d&#45;&gt;d</title>
<path fill="none" stroke="#000000" d="M372.7362,-57.1765C372.3377,-67.91 375.326,-76.8313 381.701,-76.8313 385.8846,-76.8313 388.6096,-72.9892 389.8762,-67.3142"/>
<polygon fill="#000000" stroke="#000000" points="393.3786,-67.4182 390.6658,-57.1765 386.3997,-66.8745 393.3786,-67.4182"/>
<text text-anchor="middle" x="381.701" y="-81.0313" font-family="Times,serif" font-size="14.00" fill="#000000">1</text>
</g>
<!-- _&#45;&gt;a -->
<g id="edge9" class="edge">
<title>_&#45;&gt;a</title>
<path fill="none" stroke="#000000" d="M3.6568,-75.4156C10.184,-75.4156 32.7905,-75.4156 53.328,-75.4156"/>
<polygon fill="#000000" stroke="#000000" points="53.4729,-78.9157 63.4728,-75.4156 53.4728,-71.9157 53.4729,-78.9157"/>
<text text-anchor="middle" x="33.6505" y="-79.6156" font-family="Times,serif" font-size="14.00" fill="#000000">start</text>
</g>
</g>
</svg>
