<?xml version="1.0" encoding="UTF-8" standalone="no"?>
<!DOCTYPE svg PUBLIC "-//W3C//DTD SVG 1.1//EN"
 "http://www.w3.org/Graphics/SVG/1.1/DTD/svg11.dtd">
<!-- Generated by graphviz version 2.40.1 (20161225.0304)
 -->
<!-- Pages: 1 -->
<svg width="436pt" height="161pt"
 viewBox="0.00 0.00 436.03 160.83" xmlns="http://www.w3.org/2000/svg" xmlns:xlink="http://www.w3.org/1999/xlink">
<g id="graph0" class="graph" transform="scale(1 1) rotate(0) translate(4 156.8313)">
<polygon fill="#ffffff" stroke="transparent" points="-4,4 -4,-156.8313 432.0261,-156.8313 432.0261,4 -4,4"/>
<!-- a -->
<g id="node1" class="node">
<title>a</title>
<ellipse fill="none" stroke="#000000" cx="93.1166" cy="-75.4156" rx="29.3315" ry="29.3315"/>
<text text-anchor="middle" x="93.1166" y="-79.6156" font-family="Times,serif" font-size="14.00" fill="#000000">a</text>
<text text-anchor="middle" x="93.1166" y="-62.8156" font-family="Times,serif" font-size="14.00" fill="#000000">0</text>
</g>
<!-- b -->
<g id="node2" class="node">
<title>b</title>
<ellipse fill="none" stroke="#000000" cx="194.9479" cy="-123.4156" rx="29.3315" ry="29.3315"/>
<text text-anchor="middle" x="194.9479" y="-127.6156" font-family="Times,serif" font-size="14.00" fill="#000000">b</text>
<text text-anchor="middle" x="194.9479" y="-110.8156" font-family="Times,serif" font-size="14.00" fill="#000000">0</text>
</g>
<!-- c -->
<g id="node3" class="node">
<title>c</title>
<ellipse fill="none" stroke="#000000" cx="296.7792" cy="-70.4156" rx="29.3315" ry="29.3315"/>
<text text-anchor="middle" x="296.7792" y="-74.6156" font-family="Times,serif" font-size="14.00" fill="#000000">c</text>
<text text-anchor="middle" x="296.7792" y="-57.8156" font-family="Times,serif" font-size="14.00" fill="#000000">0</text>
</g>
<!-- d -->
<g id="node4" class="node">
<title>d</title>
<ellipse fill="none" stroke="#000000" cx="398.6105" cy="-29.4156" rx="29.3315" ry="29.3315"/>
<text text-anchor="middle" x="398.6105" y="-33.6156" font-family="Times,serif" font-size="14.00" fill="#000000">d</text>
<text text-anchor="middle" x="398.6105" y="-16.8156" font-family="Times,serif" font-size="14.00" fill="#000000">1</text>
</g>
<!-- _ -->
<g id="node5" class="node">
<title>_</title>
<ellipse fill="#000000" stroke="#000000" cx="1.8" cy="-75.4156" rx="1.8" ry="1.8"/>
</g>
<!-- a&#45;&gt;a -->
<g id="edge1" class="edge">
<title>a&#45;&gt;a</title>
<path fill="none" stroke="#000000" d="M83.7622,-103.6489C83.4555,-114.1704 86.5737,-122.8313 93.1166,-122.8313 97.3082,-122.8313 100.0943,-119.2769 101.4747,-113.9559"/>
<polygon fill="#000000" stroke="#000000" points="104.9926,-113.9393 102.471,-103.6489 98.0251,-113.2657 104.9926,-113.9393"/>
<text text-anchor="middle" x="93.1166" y="-127.0313" font-family="Times,serif" font-size="14.00" fill="#000000">0</text>
</g>
<!-- a&#45;&gt;b -->
<g id="edge2" class="edge">
<title>a&#45;&gt;b</title>
<path fill="none" stroke="#000000" d="M115.5711,-94.8532C123.1015,-100.565 131.811,-106.361 140.5323,-110.4156 145.3091,-112.6365 150.5042,-114.4998 155.7259,-116.0574"/>
<polygon fill="#000000" stroke="#000000" points="155.1354,-119.5213 165.6976,-118.6895 156.922,-112.7531 155.1354,-119.5213"/>
<text text-anchor="middle" x="144.0323" y="-117.6156" font-family="Times,serif" font-size="14.00" fill="#000000">1</text>
</g>
<!-- b&#45;&gt;a -->
<g id="edge3" class="edge">
<title>b&#45;&gt;a</title>
<path fill="none" stroke="#000000" d="M171.8755,-104.4231C164.4511,-99.0272 155.9577,-93.5542 147.5323,-89.6156 142.5571,-87.2899 137.141,-85.3007 131.7181,-83.6123"/>
<polygon fill="#000000" stroke="#000000" points="132.6174,-80.2295 122.0432,-80.8906 130.7217,-86.9679 132.6174,-80.2295"/>
<text text-anchor="middle" x="144.0323" y="-94.6156" font-family="Times,serif" font-size="14.00" fill="#000000">0</text>
</g>
<!-- b&#45;&gt;c -->
<g id="edge4" class="edge">
<title>b&#45;&gt;c</title>
<path fill="none" stroke="#000000" d="M221.172,-109.7668C233.5251,-103.3374 248.4368,-95.5764 261.7412,-88.6518"/>
<polygon fill="#000000" stroke="#000000" points="263.3894,-91.7397 270.644,-84.0182 260.1576,-85.5304 263.3894,-91.7397"/>
<text text-anchor="middle" x="245.8636" y="-103.6156" font-family="Times,serif" font-size="14.00" fill="#000000">1</text>
</g>
<!-- c&#45;&gt;a -->
<g id="edge5" class="edge">
<title>c&#45;&gt;a</title>
<path fill="none" stroke="#000000" d="M267.3111,-68.9938C240.7001,-67.952 200.4736,-66.9787 165.5323,-68.6156 154.9368,-69.112 143.4979,-70.0148 132.9099,-71.0038"/>
<polygon fill="#000000" stroke="#000000" points="132.2782,-67.5489 122.6682,-72.0097 132.9625,-74.5154 132.2782,-67.5489"/>
<text text-anchor="middle" x="194.9479" y="-73.6156" font-family="Times,serif" font-size="14.00" fill="#000000">0</text>
</g>
<!-- c&#45;&gt;d -->
<g id="edge6" class="edge">
<title>c&#45;&gt;d</title>
<path fill="none" stroke="#000000" d="M324.0681,-59.4284C335.5967,-54.7867 349.2019,-49.3089 361.6121,-44.3122"/>
<polygon fill="#000000" stroke="#000000" points="363.2771,-47.4149 371.2463,-40.4332 360.6627,-40.9215 363.2771,-47.4149"/>
<text text-anchor="middle" x="347.6949" y="-55.6156" font-family="Times,serif" font-size="14.00" fill="#000000">1</text>
</g>
<!-- d&#45;&gt;a -->
<g id="edge8" class="edge">
<title>d&#45;&gt;a</title>
<path fill="none" stroke="#000000" d="M369.0164,-28.2521C342.3215,-27.6386 302.0429,-27.7971 267.3636,-32.4156 219.7152,-38.7613 166.2163,-53.0745 131.2219,-63.448"/>
<polygon fill="#000000" stroke="#000000" points="129.9923,-60.1628 121.4231,-66.3933 132.0074,-66.8665 129.9923,-60.1628"/>
<text text-anchor="middle" x="245.8636" y="-40.6156" font-family="Times,serif" font-size="14.00" fill="#000000">0</text>
</g>
<!-- d&#45;&gt;d -->
<g id="edge7" class="edge">
<title>d&#45;&gt;d</title>
<path fill="none" stroke="#000000" d="M389.2561,-57.6489C388.9494,-68.1704 392.0675,-76.8313 398.6105,-76.8313 402.8021,-76.8313 405.5881,-73.2769 406.9686,-67.9559"/>
<polygon fill="#000000" stroke="#000000" points="410.4864,-67.9393 407.9649,-57.6489 403.5189,-67.2657 410.4864,-67.9393"/>
<text text-anchor="middle" x="398.6105" y="-81.0313" font-family="Times,serif" font-size="14.00" fill="#000000">1</text>
</g>
<!-- _&#45;&gt;a -->
<g id="edge9" class="edge">
<title>_&#45;&gt;a</title>
<path fill="none" stroke="#000000" d="M3.7073,-75.4156C10.2366,-75.4156 32.4297,-75.4156 53.0696,-75.4156"/>
<polygon fill="#000000" stroke="#000000" points="53.3149,-78.9157 63.3149,-75.4156 53.3148,-71.9157 53.3149,-78.9157"/>
<text text-anchor="middle" x="33.6505" y="-79.6156" font-family="Times,serif" font-size="14.00" fill="#000000">start</text>
</g>
</g>
</svg>
