<?xml version="1.0" encoding="UTF-8" standalone="no"?>
<!DOCTYPE svg PUBLIC "-//W3C//DTD SVG 1.1//EN"
 "http://www.w3.org/Graphics/SVG/1.1/DTD/svg11.dtd">
<!-- Generated by graphviz version 2.40.1 (20161225.0304)
 -->
<!-- Pages: 1 -->
<svg width="247pt" height="204pt"
 viewBox="0.00 0.00 247.43 204.43" xmlns="http://www.w3.org/2000/svg" xmlns:xlink="http://www.w3.org/1999/xlink">
<g id="graph0" class="graph" transform="scale(1 1) rotate(0) translate(4 200.4282)">
<polygon fill="#ffffff" stroke="transparent" points="-4,4 -4,-200.4282 243.4282,-200.4282 243.4282,4 -4,4"/>
<!-- a, 0 -->
<g id="node1" class="node">
<title>a, 0</title>
<ellipse fill="none" stroke="#000000" cx="107.2141" cy="-18" rx="27" ry="18"/>
<text text-anchor="middle" x="107.2141" y="-13.8" font-family="Times,serif" font-size="14.00" fill="#000000">a, 0</text>
</g>
<!-- a, 0&#45;&gt;a, 0 -->
<g id="edge1" class="edge">
<title>a, 0&#45;&gt;a, 0</title>
<path fill="none" stroke="#000000" d="M132.6576,-24.6907C143.2419,-25.1521 152.2141,-22.9219 152.2141,-18 152.2141,-14.77 148.3501,-12.6992 142.7022,-11.7876"/>
<polygon fill="#000000" stroke="#000000" points="142.8128,-8.289 132.6576,-11.3093 142.4797,-15.2811 142.8128,-8.289"/>
<text text-anchor="middle" x="155.7141" y="-13.8" font-family="Times,serif" font-size="14.00" fill="#000000">0</text>
</g>
<!-- b, 0 -->
<g id="node2" class="node">
<title>b, 0</title>
<ellipse fill="none" stroke="#000000" cx="27" cy="-98.2141" rx="27" ry="18"/>
<text text-anchor="middle" x="27" y="-94.0141" font-family="Times,serif" font-size="14.00" fill="#000000">b, 0</text>
</g>
<!-- a, 0&#45;&gt;b, 0 -->
<g id="edge2" class="edge">
<title>a, 0&#45;&gt;b, 0</title>
<path fill="none" stroke="#000000" d="M87.0581,-30.309C73.5667,-41.7686 56.141,-58.9849 43.4735,-73.2655"/>
<polygon fill="#000000" stroke="#000000" points="40.4689,-71.3937 36.6305,-81.2688 45.7894,-75.9428 40.4689,-71.3937"/>
<text text-anchor="middle" x="61.7658" y="-55.9873" font-family="Times,serif" font-size="14.00" fill="#000000">1</text>
</g>
<!-- b, 0&#45;&gt;a, 0 -->
<g id="edge3" class="edge">
<title>b, 0&#45;&gt;a, 0</title>
<path fill="none" stroke="#000000" d="M47.156,-85.9051C60.6474,-74.4455 78.0731,-57.2292 90.7406,-42.9486"/>
<polygon fill="#000000" stroke="#000000" points="93.7451,-44.8204 97.5836,-34.9453 88.4247,-40.2713 93.7451,-44.8204"/>
<text text-anchor="middle" x="72.4483" y="-68.6268" font-family="Times,serif" font-size="14.00" fill="#000000">0</text>
</g>
<!-- c, 0 -->
<g id="node3" class="node">
<title>c, 0</title>
<ellipse fill="none" stroke="#000000" cx="107.2141" cy="-178.4282" rx="27" ry="18"/>
<text text-anchor="middle" x="107.2141" y="-174.2282" font-family="Times,serif" font-size="14.00" fill="#000000">c, 0</text>
</g>
<!-- b, 0&#45;&gt;c, 0 -->
<g id="edge4" class="edge">
<title>b, 0&#45;&gt;c, 0</title>
<path fill="none" stroke="#000000" d="M42.0877,-113.3017C54.1879,-125.402 71.3468,-142.5609 85.0145,-156.2285"/>
<polygon fill="#000000" stroke="#000000" points="82.6481,-158.812 92.1941,-163.4082 87.5979,-153.8622 82.6481,-158.812"/>
<text text-anchor="middle" x="60.0511" y="-138.9651" font-family="Times,serif" font-size="14.00" fill="#000000">1</text>
</g>
<!-- c, 0&#45;&gt;a, 0 -->
<g id="edge5" class="edge">
<title>c, 0&#45;&gt;a, 0</title>
<path fill="none" stroke="#000000" d="M107.2141,-160.3369C107.2141,-132.6547 107.2141,-79.5389 107.2141,-46.6018"/>
<polygon fill="#000000" stroke="#000000" points="110.7142,-46.2713 107.2141,-36.2713 103.7142,-46.2714 110.7142,-46.2713"/>
<text text-anchor="middle" x="103.7141" y="-107.6693" font-family="Times,serif" font-size="14.00" fill="#000000">0</text>
</g>
<!-- d, 1 -->
<g id="node4" class="node">
<title>d, 1</title>
<ellipse fill="none" stroke="#000000" cx="187.4282" cy="-98.2141" rx="27" ry="18"/>
<text text-anchor="middle" x="187.4282" y="-94.0141" font-family="Times,serif" font-size="14.00" fill="#000000">d, 1</text>
</g>
<!-- c, 0&#45;&gt;d, 1 -->
<g id="edge6" class="edge">
<title>c, 0&#45;&gt;d, 1</title>
<path fill="none" stroke="#000000" d="M122.3017,-163.3405C134.402,-151.2403 151.5609,-134.0814 165.2285,-120.4137"/>
<polygon fill="#000000" stroke="#000000" points="167.812,-122.7801 172.4082,-113.2341 162.8622,-117.8303 167.812,-122.7801"/>
<text text-anchor="middle" x="140.2651" y="-146.0771" font-family="Times,serif" font-size="14.00" fill="#000000">1</text>
</g>
<!-- d, 1&#45;&gt;a, 0 -->
<g id="edge7" class="edge">
<title>d, 1&#45;&gt;a, 0</title>
<path fill="none" stroke="#000000" d="M172.3405,-83.1264C160.2403,-71.0262 143.0814,-53.8673 129.4137,-40.1996"/>
<polygon fill="#000000" stroke="#000000" points="131.7801,-37.6162 122.2341,-33.02 126.8303,-42.566 131.7801,-37.6162"/>
<text text-anchor="middle" x="147.3771" y="-65.863" font-family="Times,serif" font-size="14.00" fill="#000000">0</text>
</g>
<!-- d, 1&#45;&gt;d, 1 -->
<g id="edge8" class="edge">
<title>d, 1&#45;&gt;d, 1</title>
<path fill="none" stroke="#000000" d="M212.8717,-104.9048C223.456,-105.3662 232.4282,-103.136 232.4282,-98.2141 232.4282,-94.9841 228.5642,-92.9133 222.9163,-92.0017"/>
<polygon fill="#000000" stroke="#000000" points="223.0269,-88.5031 212.8717,-91.5234 222.6938,-95.4952 223.0269,-88.5031"/>
<text text-anchor="middle" x="235.9282" y="-94.0141" font-family="Times,serif" font-size="14.00" fill="#000000">1</text>
</g>
</g>
</svg>
