<?xml version="1.0" encoding="UTF-8" standalone="no"?>
<!DOCTYPE svg PUBLIC "-//W3C//DTD SVG 1.1//EN"
 "http://www.w3.org/Graphics/SVG/1.1/DTD/svg11.dtd">
<!-- Generated by graphviz version 2.40.1 (20161225.0304)
 -->
<!-- Pages: 1 -->
<svg width="353pt" height="131pt"
 viewBox="0.00 0.00 352.70 131.00" xmlns="http://www.w3.org/2000/svg" xmlns:xlink="http://www.w3.org/1999/xlink">
<g id="graph0" class="graph" transform="scale(1 1) rotate(0) translate(4 127)">
<polygon fill="#ffffff" stroke="transparent" points="-4,4 -4,-127 348.701,-127 348.701,4 -4,4"/>
<!-- a -->
<g id="node1" class="node">
<title>a</title>
<ellipse fill="none" stroke="#000000" cx="81.701" cy="-68" rx="18" ry="18"/>
<text text-anchor="middle" x="81.701" y="-63.8" font-family="Times,serif" font-size="14.00" fill="#000000">a</text>
</g>
<!-- b -->
<g id="node2" class="node">
<title>b</title>
<ellipse fill="none" stroke="#000000" cx="160.701" cy="-105" rx="18" ry="18"/>
<text text-anchor="middle" x="160.701" y="-100.8" font-family="Times,serif" font-size="14.00" fill="#000000">b</text>
</g>
<!-- c -->
<g id="node3" class="node">
<title>c</title>
<ellipse fill="none" stroke="#000000" cx="239.701" cy="-52" rx="18" ry="18"/>
<text text-anchor="middle" x="239.701" y="-47.8" font-family="Times,serif" font-size="14.00" fill="#000000">c</text>
</g>
<!-- d -->
<g id="node4" class="node">
<title>d</title>
<ellipse fill="none" stroke="#000000" cx="322.701" cy="-22" rx="18" ry="18"/>
<ellipse fill="none" stroke="#000000" cx="322.701" cy="-22" rx="22" ry="22"/>
<text text-anchor="middle" x="322.701" y="-17.8" font-family="Times,serif" font-size="14.00" fill="#000000">d</text>
</g>
<!-- _ -->
<g id="node5" class="node">
<title>_</title>
<ellipse fill="#000000" stroke="#000000" cx="1.8" cy="-68" rx="1.8" ry="1.8"/>
</g>
<!-- a&#45;&gt;a -->
<g id="edge2" class="edge">
<title>a&#45;&gt;a</title>
<path fill="none" stroke="#000000" d="M74.9674,-85.0373C73.5932,-94.8579 75.8377,-104 81.701,-104 85.3656,-104 87.6165,-100.4289 88.4539,-95.3529"/>
<polygon fill="#000000" stroke="#000000" points="91.9534,-95.0307 88.4346,-85.0373 84.9534,-95.0439 91.9534,-95.0307"/>
<text text-anchor="middle" x="81.701" y="-108.2" font-family="Times,serif" font-size="14.00" fill="#000000">0</text>
</g>
<!-- a&#45;&gt;b -->
<g id="edge1" class="edge">
<title>a&#45;&gt;b</title>
<path fill="none" stroke="#000000" d="M92.3264,-82.5318C98.7447,-90.0861 107.6231,-98.6331 117.701,-103 122.2611,-104.976 127.3536,-106.0603 132.3943,-106.5829"/>
<polygon fill="#000000" stroke="#000000" points="132.3532,-110.0839 142.4809,-106.9724 132.6234,-103.0891 132.3532,-110.0839"/>
<text text-anchor="middle" x="121.201" y="-110.2" font-family="Times,serif" font-size="14.00" fill="#000000">1</text>
</g>
<!-- b&#45;&gt;a -->
<g id="edge3" class="edge">
<title>b&#45;&gt;a</title>
<path fill="none" stroke="#000000" d="M145.7588,-94.375C139.4596,-90.2076 131.9238,-85.6159 124.701,-82.2 119.7638,-79.865 114.3397,-77.7516 109.0566,-75.9115"/>
<polygon fill="#000000" stroke="#000000" points="109.8279,-72.4822 99.2358,-72.7234 107.6664,-79.1401 109.8279,-72.4822"/>
<text text-anchor="middle" x="121.201" y="-87.2" font-family="Times,serif" font-size="14.00" fill="#000000">0</text>
</g>
<!-- b&#45;&gt;c -->
<g id="edge4" class="edge">
<title>b&#45;&gt;c</title>
<path fill="none" stroke="#000000" d="M175.933,-94.7811C187.2991,-87.1557 203.0423,-76.5938 216.0419,-67.8726"/>
<polygon fill="#000000" stroke="#000000" points="218.1614,-70.6654 224.5158,-62.1876 214.2615,-64.8523 218.1614,-70.6654"/>
<text text-anchor="middle" x="200.201" y="-85.2" font-family="Times,serif" font-size="14.00" fill="#000000">1</text>
</g>
<!-- c&#45;&gt;a -->
<g id="edge5" class="edge">
<title>c&#45;&gt;a</title>
<path fill="none" stroke="#000000" d="M221.4568,-53.6402C201.9535,-55.4146 170.1283,-58.3708 142.701,-61.2 132.002,-62.3036 120.2567,-63.5941 109.9536,-64.7525"/>
<polygon fill="#000000" stroke="#000000" points="109.3851,-61.2945 99.8429,-65.8985 110.1735,-68.2499 109.3851,-61.2945"/>
<text text-anchor="middle" x="160.701" y="-66.2" font-family="Times,serif" font-size="14.00" fill="#000000">0</text>
</g>
<!-- c&#45;&gt;d -->
<g id="edge6" class="edge">
<title>c&#45;&gt;d</title>
<path fill="none" stroke="#000000" d="M256.8987,-45.784C267.1371,-42.0833 280.4227,-37.2813 292.3729,-32.962"/>
<polygon fill="#000000" stroke="#000000" points="293.786,-36.1729 302.0008,-29.482 291.4065,-29.5897 293.786,-36.1729"/>
<text text-anchor="middle" x="279.201" y="-43.2" font-family="Times,serif" font-size="14.00" fill="#000000">1</text>
</g>
<!-- d&#45;&gt;a -->
<g id="edge7" class="edge">
<title>d&#45;&gt;a</title>
<path fill="none" stroke="#000000" d="M300.4696,-20.9614C279.8947,-20.4006 248.5276,-20.5648 221.701,-25 181.0387,-31.7226 135.7413,-47.1713 107.9806,-57.6006"/>
<polygon fill="#000000" stroke="#000000" points="106.6791,-54.3511 98.5875,-61.1904 109.178,-60.8898 106.6791,-54.3511"/>
<text text-anchor="middle" x="200.201" y="-34.2" font-family="Times,serif" font-size="14.00" fill="#000000">0</text>
</g>
<!-- d&#45;&gt;d -->
<g id="edge8" class="edge">
<title>d&#45;&gt;d</title>
<path fill="none" stroke="#000000" d="M315.0183,-42.9908C314.0698,-53.0872 316.6307,-62 322.701,-62 326.5898,-62 329.0383,-58.3422 330.0466,-53.0587"/>
<polygon fill="#000000" stroke="#000000" points="333.547,-53.1023 330.3837,-42.9908 326.5509,-52.868 333.547,-53.1023"/>
<text text-anchor="middle" x="322.701" y="-66.2" font-family="Times,serif" font-size="14.00" fill="#000000">1</text>
</g>
<!-- _&#45;&gt;a -->
<g id="edge9" class="edge">
<title>_&#45;&gt;a</title>
<path fill="none" stroke="#000000" d="M3.7751,-68C10.6286,-68 34.0242,-68 53.4075,-68"/>
<polygon fill="#000000" stroke="#000000" points="53.6327,-71.5001 63.6326,-68 53.6326,-64.5001 53.6327,-71.5001"/>
<text text-anchor="middle" x="33.6505" y="-72.2" font-family="Times,serif" font-size="14.00" fill="#000000">start</text>
</g>
</g>
</svg>
