<?xml version="1.0" encoding="UTF-8" standalone="no"?>
<!DOCTYPE svg PUBLIC "-//W3C//DTD SVG 1.1//EN"
 "http://www.w3.org/Graphics/SVG/1.1/DTD/svg11.dtd">
<!-- Generated by graphviz version 2.40.1 (20161225.0304)
 -->
<!-- Pages: 1 -->
<svg width="397pt" height="133pt"
 viewBox="0.00 0.00 396.70 132.80" xmlns="http://www.w3.org/2000/svg" xmlns:xlink="http://www.w3.org/1999/xlink">
<g id="graph0" class="graph" transform="scale(1 1) rotate(0) translate(4 128.8)">
<polygon fill="#ffffff" stroke="transparent" points="-4,4 -4,-128.8 392.701,-128.8 392.701,4 -4,4"/>
<!-- a -->
<g id="node1" class="node">
<title>a</title>
<ellipse fill="none" stroke="#000000" cx="85.701" cy="-68" rx="18" ry="18"/>
<ellipse fill="none" stroke="#000000" cx="85.701" cy="-68" rx="22" ry="22"/>
<text text-anchor="middle" x="85.701" y="-63.8" font-family="Times,serif" font-size="14.00" fill="#000000">a</text>
</g>
<!-- b -->
<g id="node2" class="node">
<title>b</title>
<ellipse fill="none" stroke="#000000" cx="177.701" cy="-105" rx="27" ry="18"/>
<text text-anchor="middle" x="177.701" y="-100.8" font-family="Times,serif" font-size="14.00" fill="#000000">b</text>
</g>
<!-- c -->
<g id="node3" class="node">
<title>c</title>
<ellipse fill="none" stroke="#000000" cx="274.701" cy="-52" rx="27" ry="18"/>
<text text-anchor="middle" x="274.701" y="-47.8" font-family="Times,serif" font-size="14.00" fill="#000000">c</text>
</g>
<!-- d -->
<g id="node4" class="node">
<title>d</title>
<ellipse fill="none" stroke="#000000" cx="366.701" cy="-22" rx="18" ry="18"/>
<ellipse fill="none" stroke="#000000" cx="366.701" cy="-22" rx="22" ry="22"/>
<text text-anchor="middle" x="366.701" y="-17.8" font-family="Times,serif" font-size="14.00" fill="#000000">d</text>
</g>
<!-- _ -->
<g id="node5" class="node">
<title>_</title>
<ellipse fill="#000000" stroke="#000000" cx="1.8" cy="-68" rx="1.8" ry="1.8"/>
</g>
<!-- a&#45;&gt;a -->
<g id="edge1" class="edge">
<title>a&#45;&gt;a</title>
<path fill="none" stroke="#000000" d="M78.0183,-88.9908C77.0698,-99.0872 79.6307,-108 85.701,-108 89.5898,-108 92.0383,-104.3422 93.0466,-99.0587"/>
<polygon fill="#000000" stroke="#000000" points="96.547,-99.1023 93.3837,-88.9908 89.5509,-98.868 96.547,-99.1023"/>
<text text-anchor="middle" x="85.701" y="-112.2" font-family="Times,serif" font-size="14.00" fill="#000000">0</text>
</g>
<!-- a&#45;&gt;b -->
<g id="edge2" class="edge">
<title>a&#45;&gt;b</title>
<path fill="none" stroke="#000000" d="M99.9471,-84.7704C106.9255,-91.7455 115.9267,-99.1115 125.701,-103 130.3364,-104.8441 135.3914,-105.9857 140.4694,-106.6421"/>
<polygon fill="#000000" stroke="#000000" points="140.5744,-110.1583 150.7977,-107.3775 141.0716,-103.176 140.5744,-110.1583"/>
<text text-anchor="middle" x="129.201" y="-110.2" font-family="Times,serif" font-size="14.00" fill="#000000">1</text>
</g>
<!-- b&#45;&gt;a -->
<g id="edge3" class="edge">
<title>b&#45;&gt;a</title>
<path fill="none" stroke="#000000" d="M156.5399,-93.3144C149.1296,-89.4826 140.6678,-85.393 132.701,-82.2 127.6867,-80.1903 122.2746,-78.3054 116.969,-76.6066"/>
<polygon fill="#000000" stroke="#000000" points="117.6158,-73.1452 107.0301,-73.5855 115.5799,-79.8426 117.6158,-73.1452"/>
<text text-anchor="middle" x="129.201" y="-87.2" font-family="Times,serif" font-size="14.00" fill="#000000">0</text>
</g>
<!-- b&#45;&gt;c -->
<g id="edge4" class="edge">
<title>b&#45;&gt;c</title>
<path fill="none" stroke="#000000" d="M198.7486,-93.4998C212.2223,-86.1379 229.9108,-76.473 244.8274,-68.3227"/>
<polygon fill="#000000" stroke="#000000" points="246.5972,-71.3441 253.6945,-63.4778 243.2408,-65.2012 246.5972,-71.3441"/>
<text text-anchor="middle" x="226.201" y="-85.2" font-family="Times,serif" font-size="14.00" fill="#000000">1</text>
</g>
<!-- c&#45;&gt;a -->
<g id="edge5" class="edge">
<title>c&#45;&gt;a</title>
<path fill="none" stroke="#000000" d="M247.5897,-53.7751C222.4555,-55.4768 184.0279,-58.2211 150.701,-61.2 139.9366,-62.1622 128.184,-63.3497 117.6688,-64.4617"/>
<polygon fill="#000000" stroke="#000000" points="117.2178,-60.9899 107.6486,-65.5374 117.965,-67.95 117.2178,-60.9899"/>
<text text-anchor="middle" x="177.701" y="-66.2" font-family="Times,serif" font-size="14.00" fill="#000000">0</text>
</g>
<!-- c&#45;&gt;d -->
<g id="edge6" class="edge">
<title>c&#45;&gt;d</title>
<path fill="none" stroke="#000000" d="M299.3553,-43.9606C310.6658,-40.2724 324.1884,-35.8628 336.1387,-31.966"/>
<polygon fill="#000000" stroke="#000000" points="337.3019,-35.2681 345.7241,-28.8403 335.1317,-28.613 337.3019,-35.2681"/>
<text text-anchor="middle" x="323.201" y="-41.2" font-family="Times,serif" font-size="14.00" fill="#000000">1</text>
</g>
<!-- d&#45;&gt;a -->
<g id="edge7" class="edge">
<title>d&#45;&gt;a</title>
<path fill="none" stroke="#000000" d="M344.6397,-21.0212C320.6527,-20.3133 281.251,-20.1924 247.701,-25 201.0459,-31.6855 148.5783,-47.1244 116.3296,-57.5639"/>
<polygon fill="#000000" stroke="#000000" points="115.0103,-54.3133 106.6027,-60.7603 117.1956,-60.9634 115.0103,-54.3133"/>
<text text-anchor="middle" x="226.201" y="-34.2" font-family="Times,serif" font-size="14.00" fill="#000000">0</text>
</g>
<!-- d&#45;&gt;d -->
<g id="edge8" class="edge">
<title>d&#45;&gt;d</title>
<path fill="none" stroke="#000000" d="M359.0183,-42.9908C358.0698,-53.0872 360.6307,-62 366.701,-62 370.5898,-62 373.0383,-58.3422 374.0466,-53.0587"/>
<polygon fill="#000000" stroke="#000000" points="377.547,-53.1023 374.3837,-42.9908 370.5509,-52.868 377.547,-53.1023"/>
<text text-anchor="middle" x="366.701" y="-66.2" font-family="Times,serif" font-size="14.00" fill="#000000">1</text>
</g>
<!-- _&#45;&gt;a -->
<g id="edge9" class="edge">
<title>_&#45;&gt;a</title>
<path fill="none" stroke="#000000" d="M3.874,-68C10.7616,-68 33.5603,-68 53.3483,-68"/>
<polygon fill="#000000" stroke="#000000" points="53.6159,-71.5001 63.6159,-68 53.6158,-64.5001 53.6159,-71.5001"/>
<text text-anchor="middle" x="33.6505" y="-72.2" font-family="Times,serif" font-size="14.00" fill="#000000">start</text>
</g>
</g>
</svg>
